<svg width="1366" height="768" viewBox="0 0 1366 768" fill="none" xmlns="http://www.w3.org/2000/svg">
<rect width="1366" height="768" fill="#222222"/>
<path d="M782.219 168H583.781C568.438 168 556 180.438 556 195.781V394.219C556 409.562 568.438 422 583.781 422H782.219C797.562 422 810 409.562 810 394.219V195.781C810 180.438 797.562 168 782.219 168Z" fill="#DBB576"/>
<g filter="url(#filter0_i)">
<path d="M764.392 297.456C671.758 338.266 614.268 304.122 577.467 283.383C575.19 282.076 571.319 283.689 574.678 287.259C586.938 301.021 627.117 334.188 679.563 334.188C732.045 334.188 763.266 307.68 767.172 303.056C771.052 298.471 768.311 295.942 764.391 297.456H764.392ZM790.407 284.156C787.92 281.158 775.281 280.599 767.327 281.504C759.361 282.382 747.403 286.889 748.443 289.595C748.976 290.609 750.065 290.154 755.538 289.698C761.025 289.192 776.398 287.395 779.601 291.272C782.819 295.175 774.698 313.768 773.215 316.766C771.782 319.765 773.763 320.538 776.455 318.541C779.109 316.545 783.915 311.375 787.141 304.058C790.344 296.702 792.297 286.44 790.406 284.156H790.407Z" fill="black"/>
</g>
<path d="M643.312 168H726.16V196.525L707.061 215.129L686.225 235.965H649.266C645.978 235.965 643.312 233.299 643.312 230.012V168Z" fill="#06A6E1"/>
<path d="M687.961 198.262C689.945 196.277 692.426 196.525 692.426 196.525L726.16 196.525L686.225 235.965V202.479C686.225 202.479 685.977 200.246 687.961 198.262Z" fill="#33C4FC"/>
<path fill-rule="evenodd" clip-rule="evenodd" d="M687.086 182.227L697.516 188.227C697.817 187.91 698.163 187.637 698.542 187.418C700.705 186.179 703.464 186.915 704.72 189.07C705.964 191.225 705.226 193.973 703.063 195.225C702.686 195.441 702.28 195.602 701.858 195.703V207.707C702.276 207.808 702.677 207.968 703.05 208.181C705.226 209.433 705.964 212.182 704.708 214.337C703.464 216.492 700.692 217.227 698.529 215.989C698.11 215.749 697.733 215.444 697.411 215.084L687.044 221.047C687.196 221.505 687.273 221.984 687.272 222.467C687.272 224.944 685.252 226.97 682.752 226.97C680.252 226.97 678.232 224.957 678.232 222.467C678.232 222.024 678.295 221.596 678.414 221.192L667.987 215.195C667.689 215.506 667.348 215.773 666.975 215.989C664.799 217.227 662.04 216.492 660.796 214.337C659.553 212.182 660.291 209.433 662.454 208.181C662.827 207.967 663.228 207.808 663.646 207.706V195.703C663.223 195.602 662.818 195.441 662.441 195.225C660.278 193.986 659.54 191.225 660.783 189.07C662.027 186.915 664.799 186.179 666.962 187.418C667.339 187.636 667.683 187.907 667.983 188.222L678.416 182.221C678.293 181.805 678.231 181.373 678.232 180.94C678.232 178.45 680.252 176.436 682.752 176.436C685.252 176.436 687.272 178.449 687.272 180.94C687.272 181.388 687.207 181.82 687.086 182.227ZM685.999 184.076L696.454 190.089C696.288 190.669 696.24 191.276 696.314 191.875C696.388 192.473 696.582 193.051 696.884 193.573C697.52 194.676 698.557 195.408 699.708 195.693V207.711C699.649 207.725 699.591 207.741 699.533 207.757L685.878 184.196C685.919 184.157 685.96 184.117 685.999 184.076V184.076ZM679.629 184.199L665.974 207.76C665.915 207.743 665.856 207.727 665.796 207.712V195.693C666.947 195.408 667.984 194.676 668.62 193.573C668.923 193.05 669.117 192.471 669.191 191.872C669.264 191.272 669.216 190.663 669.048 190.083L679.5 184.071C679.542 184.114 679.585 184.157 679.629 184.199V184.199ZM684.015 185.266L697.667 208.822C697.354 209.119 697.086 209.46 696.871 209.833C696.656 210.204 696.496 210.604 696.395 211.02H669.11C669.008 210.604 668.847 210.204 668.633 209.833C668.417 209.462 668.149 209.124 667.838 208.827L681.493 185.267C681.902 185.385 682.326 185.444 682.752 185.444C683.191 185.444 683.614 185.382 684.015 185.266ZM686.095 219.433L696.482 213.458C696.451 213.36 696.423 213.262 696.399 213.162H669.104C669.09 213.221 669.074 213.279 669.057 213.337L679.495 219.341C679.916 218.904 680.422 218.557 680.982 218.32C681.542 218.083 682.144 217.962 682.752 217.963C683.381 217.962 684.004 218.092 684.58 218.345C685.156 218.598 685.671 218.969 686.095 219.433Z" fill="#E535AB"/>
<path d="M687.961 198.262C689.945 196.277 692.426 196.525 692.426 196.525L726.16 196.525L686.225 235.965V202.479C686.225 202.479 685.977 200.246 687.961 198.262Z" fill="#33C4FC" fill-opacity="0.95"/>
<path d="M293.557 499.976V511.04H307.069V515.576H293.557V530H287.917V495.44H309.469V499.976H293.557ZM319.379 505.52V530H314.219V505.52H319.379ZM320.243 498.128C320.243 498.592 320.147 499.032 319.955 499.448C319.779 499.864 319.531 500.232 319.211 500.552C318.891 500.856 318.515 501.104 318.083 501.296C317.667 501.472 317.219 501.56 316.739 501.56C316.275 501.56 315.835 501.472 315.419 501.296C315.019 501.104 314.667 500.856 314.363 500.552C314.059 500.232 313.811 499.864 313.619 499.448C313.443 499.032 313.355 498.592 313.355 498.128C313.355 497.648 313.443 497.2 313.619 496.784C313.811 496.368 314.059 496.008 314.363 495.704C314.667 495.384 315.019 495.136 315.419 494.96C315.835 494.768 316.275 494.672 316.739 494.672C317.219 494.672 317.667 494.768 318.083 494.96C318.515 495.136 318.891 495.384 319.211 495.704C319.531 496.008 319.779 496.368 319.955 496.784C320.147 497.2 320.243 497.648 320.243 498.128ZM330.687 508.76C331.215 508.216 331.759 507.728 332.319 507.296C332.895 506.848 333.503 506.464 334.143 506.144C334.783 505.824 335.463 505.576 336.183 505.4C336.903 505.224 337.687 505.136 338.535 505.136C339.879 505.136 341.055 505.36 342.063 505.808C343.087 506.256 343.943 506.888 344.631 507.704C345.335 508.52 345.863 509.504 346.215 510.656C346.567 511.792 346.743 513.048 346.743 514.424V530H341.607V514.424C341.607 512.776 341.223 511.496 340.455 510.584C339.703 509.672 338.551 509.216 336.999 509.216C335.847 509.216 334.775 509.48 333.783 510.008C332.807 510.536 331.887 511.256 331.023 512.168V530H325.863V505.52H328.983C329.687 505.52 330.135 505.848 330.327 506.504L330.687 508.76ZM368.393 511.544C367.673 510.616 366.881 509.968 366.017 509.6C365.153 509.232 364.217 509.048 363.209 509.048C361.193 509.048 359.617 509.792 358.481 511.28C357.345 512.752 356.777 514.936 356.777 517.832C356.777 519.336 356.905 520.624 357.161 521.696C357.417 522.752 357.785 523.616 358.265 524.288C358.745 524.96 359.329 525.448 360.017 525.752C360.705 526.056 361.481 526.208 362.345 526.208C363.657 526.208 364.785 525.928 365.729 525.368C366.689 524.792 367.577 523.984 368.393 522.944V511.544ZM373.553 494.48V530H370.433C369.745 530 369.305 529.672 369.113 529.016L368.657 526.352C367.633 527.552 366.465 528.52 365.153 529.256C363.857 529.992 362.345 530.36 360.617 530.36C359.241 530.36 357.993 530.088 356.873 529.544C355.753 528.984 354.793 528.176 353.993 527.12C353.193 526.064 352.569 524.76 352.121 523.208C351.689 521.64 351.473 519.848 351.473 517.832C351.473 516.008 351.713 514.32 352.193 512.768C352.689 511.216 353.393 509.872 354.305 508.736C355.217 507.584 356.321 506.688 357.617 506.048C358.929 505.392 360.393 505.064 362.009 505.064C363.449 505.064 364.673 505.296 365.681 505.76C366.689 506.208 367.593 506.84 368.393 507.656V494.48H373.553ZM412.317 505.52L398.829 536.96C398.653 537.328 398.437 537.616 398.181 537.824C397.941 538.032 397.565 538.136 397.053 538.136H393.237L397.749 528.344L387.765 505.52H392.253C392.685 505.52 393.013 505.624 393.237 505.832C393.477 506.024 393.653 506.256 393.765 506.528L399.597 520.424C399.741 520.824 399.869 521.224 399.981 521.624C400.109 522.008 400.229 522.408 400.341 522.824C400.469 522.408 400.597 522 400.725 521.6C400.853 521.2 400.997 520.8 401.157 520.4L406.749 506.528C406.861 506.24 407.045 506 407.301 505.808C407.573 505.616 407.869 505.52 408.189 505.52H412.317ZM425.556 505.136C427.364 505.136 428.996 505.432 430.452 506.024C431.924 506.616 433.172 507.456 434.196 508.544C435.236 509.632 436.036 510.952 436.596 512.504C437.156 514.056 437.436 515.8 437.436 517.736C437.436 519.672 437.156 521.416 436.596 522.968C436.036 524.52 435.236 525.848 434.196 526.952C433.172 528.04 431.924 528.88 430.452 529.472C428.996 530.064 427.364 530.36 425.556 530.36C423.732 530.36 422.084 530.064 420.612 529.472C419.156 528.88 417.908 528.04 416.868 526.952C415.828 525.848 415.028 524.52 414.468 522.968C413.908 521.416 413.628 519.672 413.628 517.736C413.628 515.8 413.908 514.056 414.468 512.504C415.028 510.952 415.828 509.632 416.868 508.544C417.908 507.456 419.156 506.616 420.612 506.024C422.084 505.432 423.732 505.136 425.556 505.136ZM425.556 526.328C427.764 526.328 429.404 525.592 430.476 524.12C431.564 522.632 432.108 520.512 432.108 517.76C432.108 515.008 431.564 512.888 430.476 511.4C429.404 509.896 427.764 509.144 425.556 509.144C423.316 509.144 421.652 509.896 420.564 511.4C419.476 512.888 418.932 515.008 418.932 517.76C418.932 520.512 419.476 522.632 420.564 524.12C421.652 525.592 423.316 526.328 425.556 526.328ZM463.034 505.52V530H459.914C459.226 530 458.786 529.672 458.594 529.016L458.21 526.736C457.698 527.28 457.154 527.776 456.578 528.224C456.018 528.672 455.418 529.056 454.778 529.376C454.138 529.696 453.45 529.944 452.714 530.12C451.994 530.296 451.218 530.384 450.386 530.384C449.042 530.384 447.858 530.16 446.834 529.712C445.81 529.264 444.946 528.632 444.242 527.816C443.554 527 443.034 526.024 442.682 524.888C442.33 523.736 442.154 522.472 442.154 521.096V505.52H447.314V521.096C447.314 522.744 447.69 524.024 448.442 524.936C449.21 525.848 450.37 526.304 451.922 526.304C453.058 526.304 454.114 526.048 455.09 525.536C456.082 525.008 457.01 524.288 457.874 523.376V505.52H463.034ZM474.172 510.056C474.94 508.504 475.868 507.288 476.956 506.408C478.044 505.512 479.348 505.064 480.868 505.064C481.396 505.064 481.892 505.128 482.356 505.256C482.82 505.368 483.236 505.544 483.604 505.784L483.244 509.672C483.18 509.944 483.076 510.136 482.932 510.248C482.804 510.344 482.628 510.392 482.404 510.392C482.164 510.392 481.82 510.352 481.372 510.272C480.924 510.176 480.452 510.128 479.956 510.128C479.236 510.128 478.596 510.232 478.036 510.44C477.492 510.648 476.996 510.952 476.548 511.352C476.116 511.752 475.732 512.24 475.396 512.816C475.06 513.392 474.748 514.048 474.46 514.784V530H469.3V505.52H472.3C472.844 505.52 473.22 505.624 473.428 505.832C473.636 506.024 473.78 506.368 473.86 506.864L474.172 510.056ZM502.765 508.76C503.293 508.216 503.837 507.728 504.397 507.296C504.973 506.848 505.581 506.464 506.221 506.144C506.861 505.824 507.541 505.576 508.261 505.4C508.981 505.224 509.765 505.136 510.613 505.136C511.957 505.136 513.133 505.36 514.141 505.808C515.165 506.256 516.021 506.888 516.709 507.704C517.413 508.52 517.941 509.504 518.293 510.656C518.645 511.792 518.821 513.048 518.821 514.424V530H513.685V514.424C513.685 512.776 513.301 511.496 512.533 510.584C511.781 509.672 510.629 509.216 509.077 509.216C507.925 509.216 506.853 509.48 505.861 510.008C504.885 510.536 503.965 511.256 503.101 512.168V530H497.941V505.52H501.061C501.765 505.52 502.213 505.848 502.405 506.504L502.765 508.76ZM540.903 515C540.903 514.136 540.775 513.336 540.519 512.6C540.279 511.848 539.919 511.2 539.439 510.656C538.959 510.096 538.359 509.664 537.639 509.36C536.935 509.04 536.119 508.88 535.191 508.88C533.319 508.88 531.847 509.416 530.775 510.488C529.703 511.56 529.023 513.064 528.735 515H540.903ZM528.591 518.168C528.655 519.56 528.871 520.768 529.239 521.792C529.607 522.8 530.095 523.64 530.703 524.312C531.327 524.984 532.063 525.488 532.911 525.824C533.775 526.144 534.735 526.304 535.791 526.304C536.799 526.304 537.671 526.192 538.407 525.968C539.143 525.728 539.783 525.472 540.327 525.2C540.871 524.912 541.335 524.656 541.719 524.432C542.103 524.192 542.455 524.072 542.775 524.072C543.191 524.072 543.511 524.232 543.735 524.552L545.199 526.448C544.591 527.168 543.903 527.776 543.135 528.272C542.367 528.768 541.551 529.176 540.687 529.496C539.823 529.8 538.935 530.016 538.023 530.144C537.111 530.288 536.223 530.36 535.359 530.36C533.663 530.36 532.087 530.08 530.631 529.52C529.191 528.944 527.935 528.104 526.863 527C525.807 525.896 524.975 524.528 524.367 522.896C523.775 521.264 523.479 519.384 523.479 517.256C523.479 515.56 523.743 513.976 524.271 512.504C524.815 511.032 525.583 509.752 526.575 508.664C527.583 507.576 528.799 506.72 530.223 506.096C531.663 505.456 533.287 505.136 535.095 505.136C536.599 505.136 537.991 505.384 539.271 505.88C540.551 506.36 541.655 507.072 542.583 508.016C543.511 508.96 544.231 510.12 544.743 511.496C545.271 512.856 545.535 514.408 545.535 516.152C545.535 516.952 545.447 517.488 545.271 517.76C545.095 518.032 544.775 518.168 544.311 518.168H528.591ZM584.458 505.52L576.61 530H572.506C572.026 530 571.69 529.688 571.498 529.064L566.626 513.824C566.498 513.392 566.378 512.96 566.266 512.528C566.17 512.096 566.082 511.672 566.002 511.256C565.826 512.12 565.61 512.984 565.354 513.848L560.41 529.064C560.234 529.688 559.858 530 559.282 530H555.37L547.522 505.52H551.602C552.002 505.52 552.33 505.624 552.586 505.832C552.858 506.024 553.034 506.256 553.114 506.528L557.194 520.784C557.354 521.44 557.49 522.08 557.602 522.704C557.73 523.312 557.842 523.92 557.938 524.528C558.098 523.92 558.266 523.312 558.442 522.704C558.618 522.08 558.802 521.44 558.994 520.784L563.578 506.456C563.658 506.168 563.818 505.936 564.058 505.76C564.314 505.568 564.618 505.472 564.97 505.472H567.226C567.594 505.472 567.906 505.568 568.162 505.76C568.418 505.936 568.586 506.168 568.666 506.456L573.13 520.784C573.322 521.44 573.498 522.08 573.658 522.704C573.834 523.328 573.994 523.952 574.138 524.576C574.25 523.968 574.37 523.352 574.498 522.728C574.626 522.104 574.778 521.456 574.954 520.784L579.106 506.528C579.202 506.24 579.378 506 579.634 505.808C579.89 505.616 580.202 505.52 580.57 505.52H584.458ZM600.847 530V509.624L598.447 509.288C598.047 509.208 597.719 509.064 597.463 508.856C597.223 508.648 597.103 508.352 597.103 507.968V505.856H600.847V503.792C600.847 502.4 601.047 501.152 601.447 500.048C601.863 498.944 602.447 498.008 603.199 497.24C603.967 496.472 604.895 495.888 605.983 495.488C607.071 495.072 608.295 494.864 609.655 494.864C610.215 494.864 610.743 494.904 611.239 494.984C611.751 495.064 612.247 495.184 612.727 495.344L612.631 497.936C612.599 498.368 612.383 498.624 611.983 498.704C611.599 498.784 611.111 498.824 610.519 498.824C609.799 498.824 609.151 498.912 608.575 499.088C607.999 499.248 607.503 499.528 607.087 499.928C606.687 500.328 606.375 500.856 606.151 501.512C605.943 502.168 605.839 502.984 605.839 503.96V505.856H612.535V509.576H606.007V530H600.847ZM626.087 505.136C627.895 505.136 629.527 505.432 630.983 506.024C632.455 506.616 633.703 507.456 634.727 508.544C635.767 509.632 636.567 510.952 637.127 512.504C637.687 514.056 637.967 515.8 637.967 517.736C637.967 519.672 637.687 521.416 637.127 522.968C636.567 524.52 635.767 525.848 634.727 526.952C633.703 528.04 632.455 528.88 630.983 529.472C629.527 530.064 627.895 530.36 626.087 530.36C624.263 530.36 622.615 530.064 621.143 529.472C619.687 528.88 618.439 528.04 617.399 526.952C616.359 525.848 615.559 524.52 614.999 522.968C614.439 521.416 614.159 519.672 614.159 517.736C614.159 515.8 614.439 514.056 614.999 512.504C615.559 510.952 616.359 509.632 617.399 508.544C618.439 507.456 619.687 506.616 621.143 506.024C622.615 505.432 624.263 505.136 626.087 505.136ZM626.087 526.328C628.295 526.328 629.935 525.592 631.007 524.12C632.095 522.632 632.639 520.512 632.639 517.76C632.639 515.008 632.095 512.888 631.007 511.4C629.935 509.896 628.295 509.144 626.087 509.144C623.847 509.144 622.183 509.896 621.095 511.4C620.007 512.888 619.463 515.008 619.463 517.76C619.463 520.512 620.007 522.632 621.095 524.12C622.183 525.592 623.847 526.328 626.087 526.328ZM663.565 505.52V530H660.445C659.757 530 659.317 529.672 659.125 529.016L658.741 526.736C658.229 527.28 657.685 527.776 657.109 528.224C656.549 528.672 655.949 529.056 655.309 529.376C654.669 529.696 653.981 529.944 653.245 530.12C652.525 530.296 651.749 530.384 650.917 530.384C649.573 530.384 648.389 530.16 647.365 529.712C646.341 529.264 645.477 528.632 644.773 527.816C644.085 527 643.565 526.024 643.213 524.888C642.861 523.736 642.685 522.472 642.685 521.096V505.52H647.845V521.096C647.845 522.744 648.221 524.024 648.973 524.936C649.741 525.848 650.901 526.304 652.453 526.304C653.589 526.304 654.645 526.048 655.621 525.536C656.613 525.008 657.541 524.288 658.405 523.376V505.52H663.565ZM674.704 510.056C675.472 508.504 676.4 507.288 677.488 506.408C678.576 505.512 679.88 505.064 681.4 505.064C681.928 505.064 682.424 505.128 682.888 505.256C683.352 505.368 683.768 505.544 684.136 505.784L683.776 509.672C683.712 509.944 683.608 510.136 683.464 510.248C683.336 510.344 683.16 510.392 682.936 510.392C682.696 510.392 682.352 510.352 681.904 510.272C681.456 510.176 680.984 510.128 680.488 510.128C679.768 510.128 679.128 510.232 678.568 510.44C678.024 510.648 677.528 510.952 677.08 511.352C676.648 511.752 676.264 512.24 675.928 512.816C675.592 513.392 675.28 514.048 674.992 514.784V530H669.832V505.52H672.832C673.376 505.52 673.752 505.624 673.96 505.832C674.168 506.024 674.312 506.368 674.392 506.864L674.704 510.056ZM686.559 513.368H698.727V517.736H686.559V513.368ZM709.963 494.48V530H704.803V494.48H709.963ZM732.388 515C732.388 514.136 732.26 513.336 732.004 512.6C731.764 511.848 731.404 511.2 730.924 510.656C730.444 510.096 729.844 509.664 729.124 509.36C728.42 509.04 727.604 508.88 726.676 508.88C724.804 508.88 723.332 509.416 722.26 510.488C721.188 511.56 720.508 513.064 720.22 515H732.388ZM720.076 518.168C720.14 519.56 720.356 520.768 720.724 521.792C721.092 522.8 721.58 523.64 722.188 524.312C722.812 524.984 723.548 525.488 724.396 525.824C725.26 526.144 726.22 526.304 727.276 526.304C728.284 526.304 729.156 526.192 729.892 525.968C730.628 525.728 731.268 525.472 731.812 525.2C732.356 524.912 732.82 524.656 733.204 524.432C733.588 524.192 733.94 524.072 734.26 524.072C734.676 524.072 734.996 524.232 735.22 524.552L736.684 526.448C736.076 527.168 735.388 527.776 734.62 528.272C733.852 528.768 733.036 529.176 732.172 529.496C731.308 529.8 730.42 530.016 729.508 530.144C728.596 530.288 727.708 530.36 726.844 530.36C725.148 530.36 723.572 530.08 722.116 529.52C720.676 528.944 719.42 528.104 718.348 527C717.292 525.896 716.46 524.528 715.852 522.896C715.26 521.264 714.964 519.384 714.964 517.256C714.964 515.56 715.228 513.976 715.756 512.504C716.3 511.032 717.068 509.752 718.06 508.664C719.068 507.576 720.284 506.72 721.708 506.096C723.148 505.456 724.772 505.136 726.58 505.136C728.084 505.136 729.476 505.384 730.756 505.88C732.036 506.36 733.14 507.072 734.068 508.016C734.996 508.96 735.716 510.12 736.228 511.496C736.756 512.856 737.02 514.408 737.02 516.152C737.02 516.952 736.932 517.488 736.756 517.76C736.58 518.032 736.26 518.168 735.796 518.168H720.076ZM750.568 517.544C752.168 517.544 753.368 517.136 754.168 516.32C754.968 515.504 755.368 514.44 755.368 513.128C755.368 511.784 754.968 510.72 754.168 509.936C753.368 509.152 752.168 508.76 750.568 508.76C748.984 508.76 747.784 509.152 746.968 509.936C746.168 510.72 745.768 511.784 745.768 513.128C745.768 513.768 745.872 514.36 746.08 514.904C746.288 515.448 746.592 515.92 746.992 516.32C747.392 516.704 747.888 517.008 748.48 517.232C749.088 517.44 749.784 517.544 750.568 517.544ZM757.744 531.2C757.744 530.656 757.584 530.224 757.264 529.904C756.96 529.568 756.544 529.312 756.016 529.136C755.488 528.944 754.872 528.808 754.168 528.728C753.464 528.632 752.712 528.568 751.911 528.536C751.128 528.488 750.32 528.448 749.488 528.416C748.672 528.368 747.88 528.288 747.112 528.176C746.344 528.576 745.712 529.056 745.216 529.616C744.736 530.176 744.496 530.824 744.496 531.56C744.496 532.04 744.616 532.488 744.855 532.904C745.112 533.32 745.496 533.68 746.008 533.984C746.536 534.288 747.2 534.528 748 534.704C748.816 534.88 749.792 534.968 750.928 534.968C753.2 534.968 754.904 534.616 756.04 533.912C757.176 533.208 757.744 532.304 757.744 531.2ZM762.927 506.408V508.328C762.927 508.968 762.544 509.36 761.776 509.504L759.328 509.912C759.744 510.84 759.952 511.872 759.952 513.008C759.952 514.208 759.712 515.296 759.232 516.272C758.768 517.248 758.12 518.08 757.288 518.768C756.456 519.456 755.464 519.984 754.312 520.352C753.16 520.72 751.912 520.904 750.568 520.904C750.056 520.904 749.552 520.88 749.056 520.832C748.576 520.768 748.104 520.688 747.64 520.592C747.176 520.864 746.832 521.152 746.608 521.456C746.384 521.76 746.272 522.072 746.272 522.392C746.272 522.92 746.504 523.312 746.968 523.568C747.432 523.824 748.04 524.008 748.792 524.12C749.56 524.232 750.432 524.304 751.408 524.336C752.384 524.368 753.376 524.424 754.384 524.504C755.392 524.584 756.384 524.72 757.36 524.912C758.336 525.088 759.2 525.392 759.952 525.824C760.72 526.24 761.336 526.808 761.8 527.528C762.264 528.248 762.496 529.184 762.496 530.336C762.496 531.392 762.232 532.424 761.704 533.432C761.176 534.44 760.408 535.336 759.4 536.12C758.408 536.904 757.192 537.528 755.752 537.992C754.312 538.472 752.672 538.712 750.832 538.712C749.008 538.712 747.416 538.536 746.056 538.184C744.712 537.832 743.584 537.352 742.672 536.744C741.776 536.152 741.104 535.464 740.656 534.68C740.224 533.896 740.008 533.08 740.008 532.232C740.008 531.08 740.368 530.096 741.088 529.28C741.824 528.464 742.816 527.824 744.064 527.36C743.392 527.04 742.848 526.6 742.432 526.04C742.032 525.48 741.832 524.744 741.832 523.832C741.832 523.112 742.096 522.36 742.624 521.576C743.152 520.792 743.944 520.128 745 519.584C743.784 518.912 742.824 518.024 742.12 516.92C741.416 515.8 741.064 514.496 741.064 513.008C741.064 511.792 741.296 510.696 741.76 509.72C742.24 508.744 742.904 507.912 743.752 507.224C744.6 506.536 745.6 506.008 746.752 505.64C747.92 505.272 749.192 505.088 750.568 505.088C752.68 505.088 754.52 505.528 756.088 506.408H762.927ZM775.646 517.544C777.246 517.544 778.446 517.136 779.246 516.32C780.046 515.504 780.446 514.44 780.446 513.128C780.446 511.784 780.046 510.72 779.246 509.936C778.446 509.152 777.246 508.76 775.646 508.76C774.062 508.76 772.862 509.152 772.046 509.936C771.246 510.72 770.846 511.784 770.846 513.128C770.846 513.768 770.95 514.36 771.158 514.904C771.366 515.448 771.67 515.92 772.07 516.32C772.47 516.704 772.966 517.008 773.558 517.232C774.166 517.44 774.862 517.544 775.646 517.544ZM782.822 531.2C782.822 530.656 782.662 530.224 782.342 529.904C782.038 529.568 781.622 529.312 781.094 529.136C780.566 528.944 779.95 528.808 779.246 528.728C778.542 528.632 777.79 528.568 776.99 528.536C776.206 528.488 775.398 528.448 774.566 528.416C773.75 528.368 772.958 528.288 772.19 528.176C771.422 528.576 770.79 529.056 770.294 529.616C769.814 530.176 769.574 530.824 769.574 531.56C769.574 532.04 769.694 532.488 769.934 532.904C770.19 533.32 770.574 533.68 771.086 533.984C771.614 534.288 772.278 534.528 773.078 534.704C773.894 534.88 774.87 534.968 776.006 534.968C778.278 534.968 779.982 534.616 781.118 533.912C782.254 533.208 782.822 532.304 782.822 531.2ZM788.006 506.408V508.328C788.006 508.968 787.622 509.36 786.854 509.504L784.406 509.912C784.822 510.84 785.03 511.872 785.03 513.008C785.03 514.208 784.79 515.296 784.31 516.272C783.846 517.248 783.198 518.08 782.366 518.768C781.534 519.456 780.542 519.984 779.39 520.352C778.238 520.72 776.99 520.904 775.646 520.904C775.134 520.904 774.63 520.88 774.134 520.832C773.654 520.768 773.182 520.688 772.718 520.592C772.254 520.864 771.91 521.152 771.686 521.456C771.462 521.76 771.35 522.072 771.35 522.392C771.35 522.92 771.582 523.312 772.046 523.568C772.51 523.824 773.118 524.008 773.87 524.12C774.638 524.232 775.51 524.304 776.486 524.336C777.462 524.368 778.454 524.424 779.462 524.504C780.47 524.584 781.462 524.72 782.438 524.912C783.414 525.088 784.278 525.392 785.03 525.824C785.798 526.24 786.414 526.808 786.878 527.528C787.342 528.248 787.574 529.184 787.574 530.336C787.574 531.392 787.31 532.424 786.782 533.432C786.254 534.44 785.486 535.336 784.478 536.12C783.486 536.904 782.27 537.528 780.83 537.992C779.39 538.472 777.75 538.712 775.91 538.712C774.086 538.712 772.494 538.536 771.134 538.184C769.79 537.832 768.662 537.352 767.75 536.744C766.854 536.152 766.182 535.464 765.734 534.68C765.302 533.896 765.086 533.08 765.086 532.232C765.086 531.08 765.446 530.096 766.166 529.28C766.902 528.464 767.894 527.824 769.142 527.36C768.47 527.04 767.926 526.6 767.51 526.04C767.11 525.48 766.91 524.744 766.91 523.832C766.91 523.112 767.174 522.36 767.702 521.576C768.23 520.792 769.022 520.128 770.078 519.584C768.862 518.912 767.902 518.024 767.198 516.92C766.494 515.8 766.142 514.496 766.142 513.008C766.142 511.792 766.374 510.696 766.838 509.72C767.318 508.744 767.982 507.912 768.83 507.224C769.678 506.536 770.678 506.008 771.83 505.64C772.998 505.272 774.27 505.088 775.646 505.088C777.758 505.088 779.598 505.528 781.166 506.408H788.006ZM807.716 515C807.716 514.136 807.588 513.336 807.332 512.6C807.092 511.848 806.732 511.2 806.252 510.656C805.772 510.096 805.172 509.664 804.452 509.36C803.748 509.04 802.932 508.88 802.004 508.88C800.132 508.88 798.66 509.416 797.588 510.488C796.516 511.56 795.836 513.064 795.548 515H807.716ZM795.404 518.168C795.468 519.56 795.684 520.768 796.052 521.792C796.42 522.8 796.908 523.64 797.516 524.312C798.14 524.984 798.876 525.488 799.724 525.824C800.588 526.144 801.548 526.304 802.604 526.304C803.612 526.304 804.484 526.192 805.22 525.968C805.956 525.728 806.596 525.472 807.14 525.2C807.684 524.912 808.148 524.656 808.532 524.432C808.916 524.192 809.268 524.072 809.588 524.072C810.004 524.072 810.324 524.232 810.548 524.552L812.012 526.448C811.404 527.168 810.716 527.776 809.948 528.272C809.18 528.768 808.364 529.176 807.5 529.496C806.636 529.8 805.748 530.016 804.836 530.144C803.924 530.288 803.036 530.36 802.172 530.36C800.476 530.36 798.9 530.08 797.444 529.52C796.004 528.944 794.748 528.104 793.676 527C792.62 525.896 791.788 524.528 791.18 522.896C790.588 521.264 790.292 519.384 790.292 517.256C790.292 515.56 790.556 513.976 791.084 512.504C791.628 511.032 792.396 509.752 793.388 508.664C794.396 507.576 795.612 506.72 797.036 506.096C798.476 505.456 800.1 505.136 801.908 505.136C803.412 505.136 804.804 505.384 806.084 505.88C807.364 506.36 808.468 507.072 809.396 508.016C810.324 508.96 811.044 510.12 811.556 511.496C812.084 512.856 812.348 514.408 812.348 516.152C812.348 516.952 812.26 517.488 812.084 517.76C811.908 518.032 811.588 518.168 811.124 518.168H795.404ZM832.784 511.544C832.064 510.616 831.272 509.968 830.408 509.6C829.544 509.232 828.608 509.048 827.6 509.048C825.584 509.048 824.008 509.792 822.872 511.28C821.736 512.752 821.168 514.936 821.168 517.832C821.168 519.336 821.296 520.624 821.552 521.696C821.808 522.752 822.176 523.616 822.656 524.288C823.136 524.96 823.72 525.448 824.408 525.752C825.096 526.056 825.872 526.208 826.736 526.208C828.048 526.208 829.176 525.928 830.12 525.368C831.08 524.792 831.968 523.984 832.784 522.944V511.544ZM837.944 494.48V530H834.824C834.136 530 833.696 529.672 833.504 529.016L833.048 526.352C832.024 527.552 830.856 528.52 829.544 529.256C828.248 529.992 826.736 530.36 825.008 530.36C823.632 530.36 822.384 530.088 821.264 529.544C820.144 528.984 819.184 528.176 818.384 527.12C817.584 526.064 816.96 524.76 816.512 523.208C816.08 521.64 815.864 519.848 815.864 517.832C815.864 516.008 816.104 514.32 816.584 512.768C817.08 511.216 817.784 509.872 818.696 508.736C819.608 507.584 820.712 506.688 822.008 506.048C823.32 505.392 824.784 505.064 826.4 505.064C827.84 505.064 829.064 505.296 830.072 505.76C831.08 506.208 831.984 506.84 832.784 507.656V494.48H837.944ZM861.367 523.856C862.087 524.784 862.871 525.44 863.719 525.824C864.583 526.192 865.519 526.376 866.527 526.376C868.559 526.376 870.143 525.64 871.279 524.168C872.415 522.696 872.983 520.416 872.983 517.328C872.983 514.512 872.487 512.456 871.495 511.16C870.519 509.864 869.119 509.216 867.295 509.216C866.031 509.216 864.927 509.504 863.983 510.08C863.055 510.64 862.183 511.448 861.367 512.504V523.856ZM861.367 508.76C862.375 507.656 863.503 506.776 864.751 506.12C865.999 505.464 867.423 505.136 869.023 505.136C870.447 505.136 871.727 505.416 872.863 505.976C874.015 506.52 874.991 507.312 875.791 508.352C876.591 509.392 877.207 510.656 877.639 512.144C878.071 513.616 878.286 515.28 878.286 517.136C878.286 519.12 878.039 520.928 877.543 522.56C877.063 524.176 876.367 525.568 875.455 526.736C874.543 527.888 873.439 528.784 872.143 529.424C870.847 530.048 869.399 530.36 867.799 530.36C867.015 530.36 866.303 530.28 865.663 530.12C865.023 529.976 864.431 529.76 863.887 529.472C863.343 529.184 862.839 528.84 862.375 528.44C861.927 528.04 861.495 527.584 861.079 527.072L860.863 528.968C860.783 529.336 860.639 529.6 860.431 529.76C860.223 529.92 859.935 530 859.567 530H856.207V494.48H861.367V508.76ZM899.356 515C899.356 514.136 899.228 513.336 898.972 512.6C898.732 511.848 898.372 511.2 897.892 510.656C897.412 510.096 896.812 509.664 896.092 509.36C895.388 509.04 894.572 508.88 893.644 508.88C891.772 508.88 890.3 509.416 889.228 510.488C888.156 511.56 887.476 513.064 887.188 515H899.356ZM887.044 518.168C887.108 519.56 887.324 520.768 887.692 521.792C888.06 522.8 888.548 523.64 889.156 524.312C889.78 524.984 890.516 525.488 891.364 525.824C892.228 526.144 893.188 526.304 894.244 526.304C895.252 526.304 896.124 526.192 896.86 525.968C897.596 525.728 898.236 525.472 898.78 525.2C899.324 524.912 899.788 524.656 900.172 524.432C900.556 524.192 900.908 524.072 901.228 524.072C901.644 524.072 901.964 524.232 902.188 524.552L903.652 526.448C903.044 527.168 902.356 527.776 901.588 528.272C900.82 528.768 900.004 529.176 899.14 529.496C898.276 529.8 897.388 530.016 896.476 530.144C895.564 530.288 894.676 530.36 893.812 530.36C892.116 530.36 890.54 530.08 889.084 529.52C887.644 528.944 886.388 528.104 885.316 527C884.26 525.896 883.428 524.528 882.82 522.896C882.228 521.264 881.932 519.384 881.932 517.256C881.932 515.56 882.196 513.976 882.724 512.504C883.268 511.032 884.036 509.752 885.028 508.664C886.036 507.576 887.252 506.72 888.676 506.096C890.116 505.456 891.74 505.136 893.548 505.136C895.052 505.136 896.444 505.384 897.724 505.88C899.004 506.36 900.108 507.072 901.036 508.016C901.964 508.96 902.684 510.12 903.196 511.496C903.724 512.856 903.988 514.408 903.988 516.152C903.988 516.952 903.9 517.488 903.724 517.76C903.548 518.032 903.228 518.168 902.764 518.168H887.044ZM923.416 509.96C923.288 510.184 923.144 510.344 922.984 510.44C922.824 510.536 922.624 510.584 922.384 510.584C922.112 510.584 921.816 510.504 921.496 510.344C921.176 510.168 920.8 509.976 920.368 509.768C919.936 509.56 919.424 509.376 918.832 509.216C918.256 509.04 917.576 508.952 916.792 508.952C916.152 508.952 915.568 509.032 915.04 509.192C914.528 509.336 914.088 509.552 913.72 509.84C913.368 510.112 913.096 510.44 912.904 510.824C912.712 511.192 912.616 511.592 912.616 512.024C912.616 512.6 912.792 513.08 913.144 513.464C913.496 513.848 913.96 514.184 914.536 514.472C915.112 514.744 915.768 514.992 916.504 515.216C917.24 515.44 917.992 515.68 918.76 515.936C919.528 516.192 920.28 516.488 921.016 516.824C921.752 517.16 922.408 517.576 922.984 518.072C923.56 518.552 924.024 519.144 924.376 519.848C924.728 520.536 924.904 521.376 924.904 522.368C924.904 523.52 924.696 524.584 924.28 525.56C923.864 526.536 923.256 527.384 922.456 528.104C921.656 528.824 920.656 529.384 919.456 529.784C918.272 530.184 916.912 530.384 915.376 530.384C914.528 530.384 913.704 530.304 912.904 530.144C912.12 530 911.368 529.8 910.648 529.544C909.944 529.272 909.28 528.952 908.656 528.584C908.048 528.216 907.504 527.816 907.024 527.384L908.224 525.416C908.368 525.176 908.544 524.992 908.752 524.864C908.976 524.72 909.248 524.648 909.568 524.648C909.904 524.648 910.232 524.76 910.552 524.984C910.888 525.192 911.272 525.424 911.704 525.68C912.152 525.936 912.688 526.176 913.312 526.4C913.936 526.608 914.712 526.712 915.64 526.712C916.408 526.712 917.072 526.624 917.632 526.448C918.192 526.256 918.656 526 919.024 525.68C919.392 525.36 919.664 525 919.84 524.6C920.016 524.184 920.104 523.744 920.104 523.28C920.104 522.656 919.928 522.144 919.576 521.744C919.224 521.344 918.752 521 918.16 520.712C917.584 520.424 916.92 520.168 916.168 519.944C915.432 519.72 914.68 519.48 913.912 519.224C913.144 518.968 912.384 518.672 911.632 518.336C910.896 518 910.232 517.576 909.64 517.064C909.064 516.536 908.6 515.904 908.248 515.168C907.896 514.416 907.72 513.504 907.72 512.432C907.72 511.456 907.912 510.528 908.296 509.648C908.696 508.768 909.272 507.992 910.024 507.32C910.792 506.648 911.728 506.12 912.832 505.736C913.952 505.336 915.24 505.136 916.696 505.136C918.344 505.136 919.84 505.4 921.184 505.928C922.528 506.456 923.656 507.176 924.568 508.088L923.416 509.96ZM937.601 530.384C935.569 530.384 934.001 529.816 932.897 528.68C931.809 527.528 931.265 525.912 931.265 523.832V509.576H928.577C928.289 509.576 928.041 509.488 927.833 509.312C927.625 509.12 927.521 508.84 927.521 508.472V506.384L931.481 505.808L932.609 498.728C932.689 498.456 932.825 498.24 933.017 498.08C933.209 497.904 933.465 497.816 933.785 497.816H936.425V505.856H943.217V509.576H936.425V523.472C936.425 524.352 936.641 525.024 937.073 525.488C937.505 525.952 938.081 526.184 938.801 526.184C939.201 526.184 939.545 526.136 939.833 526.04C940.121 525.928 940.369 525.816 940.577 525.704C940.785 525.576 940.961 525.464 941.105 525.368C941.265 525.256 941.417 525.2 941.561 525.2C941.849 525.2 942.081 525.36 942.257 525.68L943.793 528.2C942.993 528.904 942.049 529.448 940.961 529.832C939.873 530.2 938.753 530.384 937.601 530.384ZM960.894 530V509.624L958.494 509.288C958.094 509.208 957.766 509.064 957.51 508.856C957.27 508.648 957.15 508.352 957.15 507.968V505.856H960.894V503.792C960.894 502.4 961.094 501.152 961.494 500.048C961.91 498.944 962.494 498.008 963.246 497.24C964.014 496.472 964.942 495.888 966.03 495.488C967.118 495.072 968.342 494.864 969.702 494.864C970.262 494.864 970.79 494.904 971.286 494.984C971.798 495.064 972.294 495.184 972.774 495.344L972.678 497.936C972.646 498.368 972.43 498.624 972.03 498.704C971.646 498.784 971.158 498.824 970.566 498.824C969.846 498.824 969.198 498.912 968.622 499.088C968.046 499.248 967.55 499.528 967.134 499.928C966.734 500.328 966.422 500.856 966.198 501.512C965.99 502.168 965.886 502.984 965.886 503.96V505.856H972.582V509.576H966.054V530H960.894ZM981.125 510.056C981.893 508.504 982.821 507.288 983.909 506.408C984.997 505.512 986.301 505.064 987.821 505.064C988.349 505.064 988.845 505.128 989.309 505.256C989.773 505.368 990.189 505.544 990.557 505.784L990.197 509.672C990.133 509.944 990.029 510.136 989.885 510.248C989.757 510.344 989.581 510.392 989.357 510.392C989.117 510.392 988.773 510.352 988.325 510.272C987.877 510.176 987.405 510.128 986.909 510.128C986.189 510.128 985.549 510.232 984.989 510.44C984.445 510.648 983.949 510.952 983.501 511.352C983.069 511.752 982.685 512.24 982.349 512.816C982.013 513.392 981.701 514.048 981.413 514.784V530H976.253V505.52H979.253C979.797 505.52 980.173 505.624 980.381 505.832C980.589 506.024 980.733 506.368 980.813 506.864L981.125 510.056ZM999.348 505.52V530H994.188V505.52H999.348ZM1000.21 498.128C1000.21 498.592 1000.12 499.032 999.924 499.448C999.748 499.864 999.5 500.232 999.18 500.552C998.86 500.856 998.484 501.104 998.052 501.296C997.636 501.472 997.188 501.56 996.708 501.56C996.244 501.56 995.804 501.472 995.388 501.296C994.988 501.104 994.636 500.856 994.332 500.552C994.028 500.232 993.78 499.864 993.588 499.448C993.412 499.032 993.324 498.592 993.324 498.128C993.324 497.648 993.412 497.2 993.588 496.784C993.78 496.368 994.028 496.008 994.332 495.704C994.636 495.384 994.988 495.136 995.388 494.96C995.804 494.768 996.244 494.672 996.708 494.672C997.188 494.672 997.636 494.768 998.052 494.96C998.484 495.136 998.86 495.384 999.18 495.704C999.5 496.008 999.748 496.368 999.924 496.784C1000.12 497.2 1000.21 497.648 1000.21 498.128ZM1021.89 515C1021.89 514.136 1021.76 513.336 1021.5 512.6C1021.26 511.848 1020.9 511.2 1020.42 510.656C1019.94 510.096 1019.34 509.664 1018.62 509.36C1017.92 509.04 1017.1 508.88 1016.18 508.88C1014.3 508.88 1012.83 509.416 1011.76 510.488C1010.69 511.56 1010.01 513.064 1009.72 515H1021.89ZM1009.58 518.168C1009.64 519.56 1009.86 520.768 1010.22 521.792C1010.59 522.8 1011.08 523.64 1011.69 524.312C1012.31 524.984 1013.05 525.488 1013.9 525.824C1014.76 526.144 1015.72 526.304 1016.78 526.304C1017.78 526.304 1018.66 526.192 1019.39 525.968C1020.13 525.728 1020.77 525.472 1021.31 525.2C1021.86 524.912 1022.32 524.656 1022.7 524.432C1023.09 524.192 1023.44 524.072 1023.76 524.072C1024.18 524.072 1024.5 524.232 1024.72 524.552L1026.18 526.448C1025.58 527.168 1024.89 527.776 1024.12 528.272C1023.35 528.768 1022.54 529.176 1021.67 529.496C1020.81 529.8 1019.92 530.016 1019.01 530.144C1018.1 530.288 1017.21 530.36 1016.34 530.36C1014.65 530.36 1013.07 530.08 1011.62 529.52C1010.18 528.944 1008.92 528.104 1007.85 527C1006.79 525.896 1005.96 524.528 1005.35 522.896C1004.76 521.264 1004.46 519.384 1004.46 517.256C1004.46 515.56 1004.73 513.976 1005.26 512.504C1005.8 511.032 1006.57 509.752 1007.56 508.664C1008.57 507.576 1009.78 506.72 1011.21 506.096C1012.65 505.456 1014.27 505.136 1016.08 505.136C1017.58 505.136 1018.98 505.384 1020.26 505.88C1021.54 506.36 1022.64 507.072 1023.57 508.016C1024.5 508.96 1025.22 510.12 1025.73 511.496C1026.26 512.856 1026.52 514.408 1026.52 516.152C1026.52 516.952 1026.43 517.488 1026.26 517.76C1026.08 518.032 1025.76 518.168 1025.3 518.168H1009.58ZM1036.16 508.76C1036.68 508.216 1037.23 507.728 1037.79 507.296C1038.36 506.848 1038.97 506.464 1039.61 506.144C1040.25 505.824 1040.93 505.576 1041.65 505.4C1042.37 505.224 1043.16 505.136 1044 505.136C1045.35 505.136 1046.52 505.36 1047.53 505.808C1048.56 506.256 1049.41 506.888 1050.1 507.704C1050.8 508.52 1051.33 509.504 1051.68 510.656C1052.04 511.792 1052.21 513.048 1052.21 514.424V530H1047.08V514.424C1047.08 512.776 1046.69 511.496 1045.92 510.584C1045.17 509.672 1044.02 509.216 1042.47 509.216C1041.32 509.216 1040.24 509.48 1039.25 510.008C1038.28 510.536 1037.36 511.256 1036.49 512.168V530H1031.33V505.52H1034.45C1035.16 505.52 1035.6 505.848 1035.8 506.504L1036.16 508.76ZM1073.86 511.544C1073.14 510.616 1072.35 509.968 1071.49 509.6C1070.62 509.232 1069.69 509.048 1068.68 509.048C1066.66 509.048 1065.09 509.792 1063.95 511.28C1062.81 512.752 1062.25 514.936 1062.25 517.832C1062.25 519.336 1062.37 520.624 1062.63 521.696C1062.89 522.752 1063.25 523.616 1063.73 524.288C1064.21 524.96 1064.8 525.448 1065.49 525.752C1066.17 526.056 1066.95 526.208 1067.81 526.208C1069.13 526.208 1070.25 525.928 1071.2 525.368C1072.16 524.792 1073.05 523.984 1073.86 522.944V511.544ZM1079.02 494.48V530H1075.9C1075.21 530 1074.77 529.672 1074.58 529.016L1074.13 526.352C1073.1 527.552 1071.93 528.52 1070.62 529.256C1069.33 529.992 1067.81 530.36 1066.09 530.36C1064.71 530.36 1063.46 530.088 1062.34 529.544C1061.22 528.984 1060.26 528.176 1059.46 527.12C1058.66 526.064 1058.04 524.76 1057.59 523.208C1057.16 521.64 1056.94 519.848 1056.94 517.832C1056.94 516.008 1057.18 514.32 1057.66 512.768C1058.16 511.216 1058.86 509.872 1059.77 508.736C1060.69 507.584 1061.79 506.688 1063.09 506.048C1064.4 505.392 1065.86 505.064 1067.48 505.064C1068.92 505.064 1070.14 505.296 1071.15 505.76C1072.16 506.208 1073.06 506.84 1073.86 507.656V494.48H1079.02ZM318.841 565.52L310.993 590H306.889C306.409 590 306.073 589.688 305.881 589.064L301.009 573.824C300.881 573.392 300.761 572.96 300.649 572.528C300.553 572.096 300.465 571.672 300.385 571.256C300.209 572.12 299.993 572.984 299.737 573.848L294.793 589.064C294.617 589.688 294.241 590 293.665 590H289.753L281.905 565.52H285.985C286.385 565.52 286.713 565.624 286.969 565.832C287.241 566.024 287.417 566.256 287.497 566.528L291.577 580.784C291.737 581.44 291.873 582.08 291.985 582.704C292.113 583.312 292.225 583.92 292.321 584.528C292.481 583.92 292.649 583.312 292.825 582.704C293.001 582.08 293.185 581.44 293.377 580.784L297.961 566.456C298.041 566.168 298.201 565.936 298.441 565.76C298.697 565.568 299.001 565.472 299.353 565.472H301.609C301.977 565.472 302.289 565.568 302.545 565.76C302.801 565.936 302.969 566.168 303.049 566.456L307.513 580.784C307.705 581.44 307.881 582.08 308.041 582.704C308.217 583.328 308.377 583.952 308.521 584.576C308.633 583.968 308.753 583.352 308.881 582.728C309.009 582.104 309.161 581.456 309.337 580.784L313.489 566.528C313.585 566.24 313.761 566 314.017 565.808C314.273 565.616 314.585 565.52 314.953 565.52H318.841ZM327.981 565.52V590H322.821V565.52H327.981ZM328.845 558.128C328.845 558.592 328.749 559.032 328.557 559.448C328.381 559.864 328.133 560.232 327.813 560.552C327.493 560.856 327.117 561.104 326.685 561.296C326.269 561.472 325.821 561.56 325.341 561.56C324.877 561.56 324.437 561.472 324.021 561.296C323.621 561.104 323.269 560.856 322.965 560.552C322.661 560.232 322.413 559.864 322.221 559.448C322.045 559.032 321.957 558.592 321.957 558.128C321.957 557.648 322.045 557.2 322.221 556.784C322.413 556.368 322.661 556.008 322.965 555.704C323.269 555.384 323.621 555.136 324.021 554.96C324.437 554.768 324.877 554.672 325.341 554.672C325.821 554.672 326.269 554.768 326.685 554.96C327.117 555.136 327.493 555.384 327.813 555.704C328.133 556.008 328.381 556.368 328.557 556.784C328.749 557.2 328.845 557.648 328.845 558.128ZM342.312 590.384C340.28 590.384 338.712 589.816 337.608 588.68C336.52 587.528 335.976 585.912 335.976 583.832V569.576H333.288C333 569.576 332.752 569.488 332.544 569.312C332.336 569.12 332.232 568.84 332.232 568.472V566.384L336.192 565.808L337.32 558.728C337.4 558.456 337.536 558.24 337.728 558.08C337.92 557.904 338.176 557.816 338.496 557.816H341.136V565.856H347.928V569.576H341.136V583.472C341.136 584.352 341.352 585.024 341.784 585.488C342.216 585.952 342.792 586.184 343.512 586.184C343.912 586.184 344.256 586.136 344.544 586.04C344.832 585.928 345.08 585.816 345.288 585.704C345.496 585.576 345.672 585.464 345.816 585.368C345.976 585.256 346.128 585.2 346.272 585.2C346.56 585.2 346.792 585.36 346.968 585.68L348.504 588.2C347.704 588.904 346.76 589.448 345.672 589.832C344.584 590.2 343.464 590.384 342.312 590.384ZM357.156 568.424C358.164 567.432 359.268 566.64 360.468 566.048C361.668 565.44 363.068 565.136 364.668 565.136C366.012 565.136 367.188 565.36 368.196 565.808C369.22 566.256 370.076 566.888 370.764 567.704C371.468 568.52 371.996 569.504 372.348 570.656C372.7 571.792 372.876 573.048 372.876 574.424V590H367.74V574.424C367.74 572.776 367.356 571.496 366.588 570.584C365.836 569.672 364.684 569.216 363.132 569.216C361.98 569.216 360.908 569.48 359.916 570.008C358.94 570.536 358.02 571.256 357.156 572.168V590H351.996V554.48H357.156V568.424ZM398.703 590.384C396.671 590.384 395.103 589.816 393.999 588.68C392.911 587.528 392.367 585.912 392.367 583.832V569.576H389.679C389.391 569.576 389.143 569.488 388.935 569.312C388.727 569.12 388.623 568.84 388.623 568.472V566.384L392.583 565.808L393.711 558.728C393.791 558.456 393.927 558.24 394.119 558.08C394.311 557.904 394.567 557.816 394.887 557.816H397.527V565.856H404.319V569.576H397.527V583.472C397.527 584.352 397.743 585.024 398.175 585.488C398.607 585.952 399.183 586.184 399.903 586.184C400.303 586.184 400.647 586.136 400.935 586.04C401.223 585.928 401.471 585.816 401.679 585.704C401.887 585.576 402.063 585.464 402.207 585.368C402.367 585.256 402.519 585.2 402.663 585.2C402.951 585.2 403.183 585.36 403.359 585.68L404.895 588.2C404.095 588.904 403.151 589.448 402.063 589.832C400.975 590.2 399.855 590.384 398.703 590.384ZM413.546 568.424C414.554 567.432 415.658 566.64 416.858 566.048C418.058 565.44 419.458 565.136 421.058 565.136C422.402 565.136 423.578 565.36 424.586 565.808C425.61 566.256 426.466 566.888 427.154 567.704C427.858 568.52 428.386 569.504 428.738 570.656C429.09 571.792 429.266 573.048 429.266 574.424V590H424.13V574.424C424.13 572.776 423.746 571.496 422.978 570.584C422.226 569.672 421.074 569.216 419.522 569.216C418.37 569.216 417.298 569.48 416.306 570.008C415.33 570.536 414.41 571.256 413.546 572.168V590H408.386V554.48H413.546V568.424ZM451.348 575C451.348 574.136 451.22 573.336 450.964 572.6C450.724 571.848 450.364 571.2 449.884 570.656C449.404 570.096 448.804 569.664 448.084 569.36C447.38 569.04 446.564 568.88 445.636 568.88C443.764 568.88 442.292 569.416 441.22 570.488C440.148 571.56 439.468 573.064 439.18 575H451.348ZM439.036 578.168C439.1 579.56 439.316 580.768 439.684 581.792C440.052 582.8 440.54 583.64 441.148 584.312C441.772 584.984 442.508 585.488 443.356 585.824C444.22 586.144 445.18 586.304 446.236 586.304C447.244 586.304 448.116 586.192 448.852 585.968C449.588 585.728 450.228 585.472 450.772 585.2C451.316 584.912 451.78 584.656 452.164 584.432C452.548 584.192 452.9 584.072 453.22 584.072C453.636 584.072 453.956 584.232 454.18 584.552L455.644 586.448C455.036 587.168 454.348 587.776 453.58 588.272C452.812 588.768 451.996 589.176 451.132 589.496C450.268 589.8 449.38 590.016 448.468 590.144C447.556 590.288 446.668 590.36 445.804 590.36C444.108 590.36 442.532 590.08 441.076 589.52C439.636 588.944 438.38 588.104 437.308 587C436.252 585.896 435.42 584.528 434.812 582.896C434.22 581.264 433.924 579.384 433.924 577.256C433.924 575.56 434.188 573.976 434.716 572.504C435.26 571.032 436.028 569.752 437.02 568.664C438.028 567.576 439.244 566.72 440.668 566.096C442.108 565.456 443.732 565.136 445.54 565.136C447.044 565.136 448.436 565.384 449.716 565.88C450.996 566.36 452.1 567.072 453.028 568.016C453.956 568.96 454.676 570.12 455.188 571.496C455.716 572.856 455.98 574.408 455.98 576.152C455.98 576.952 455.892 577.488 455.716 577.76C455.54 578.032 455.22 578.168 454.756 578.168H439.036ZM477.906 583.856C478.626 584.784 479.41 585.44 480.258 585.824C481.122 586.192 482.074 586.376 483.114 586.376C485.13 586.376 486.698 585.64 487.818 584.168C488.954 582.696 489.522 580.504 489.522 577.592C489.522 576.088 489.394 574.808 489.138 573.752C488.882 572.68 488.514 571.808 488.034 571.136C487.554 570.464 486.97 569.976 486.282 569.672C485.594 569.368 484.818 569.216 483.954 569.216C482.642 569.216 481.506 569.504 480.546 570.08C479.602 570.64 478.722 571.448 477.906 572.504V583.856ZM477.642 569.072C478.666 567.872 479.826 566.904 481.122 566.168C482.434 565.432 483.954 565.064 485.682 565.064C487.058 565.064 488.306 565.344 489.426 565.904C490.546 566.448 491.506 567.248 492.306 568.304C493.106 569.36 493.722 570.672 494.154 572.24C494.602 573.792 494.826 575.576 494.826 577.592C494.826 579.4 494.578 581.088 494.082 582.656C493.602 584.208 492.906 585.56 491.994 586.712C491.082 587.848 489.978 588.744 488.682 589.4C487.386 590.04 485.922 590.36 484.29 590.36C482.85 590.36 481.626 590.128 480.618 589.664C479.626 589.2 478.722 588.56 477.906 587.744V598.136H472.746V565.52H475.866C476.57 565.52 477.018 565.848 477.21 566.504L477.642 569.072ZM510.423 565.136C512.231 565.136 513.863 565.432 515.319 566.024C516.791 566.616 518.039 567.456 519.063 568.544C520.103 569.632 520.903 570.952 521.463 572.504C522.023 574.056 522.303 575.8 522.303 577.736C522.303 579.672 522.023 581.416 521.463 582.968C520.903 584.52 520.103 585.848 519.063 586.952C518.039 588.04 516.791 588.88 515.319 589.472C513.863 590.064 512.231 590.36 510.423 590.36C508.599 590.36 506.951 590.064 505.479 589.472C504.023 588.88 502.775 588.04 501.735 586.952C500.695 585.848 499.895 584.52 499.335 582.968C498.775 581.416 498.495 579.672 498.495 577.736C498.495 575.8 498.775 574.056 499.335 572.504C499.895 570.952 500.695 569.632 501.735 568.544C502.775 567.456 504.023 566.616 505.479 566.024C506.951 565.432 508.599 565.136 510.423 565.136ZM510.423 586.328C512.631 586.328 514.271 585.592 515.343 584.12C516.431 582.632 516.975 580.512 516.975 577.76C516.975 575.008 516.431 572.888 515.343 571.4C514.271 569.896 512.631 569.144 510.423 569.144C508.183 569.144 506.519 569.896 505.431 571.4C504.343 572.888 503.799 575.008 503.799 577.76C503.799 580.512 504.343 582.632 505.431 584.12C506.519 585.592 508.183 586.328 510.423 586.328ZM561.278 565.52L553.43 590H549.326C548.846 590 548.51 589.688 548.318 589.064L543.446 573.824C543.318 573.392 543.198 572.96 543.086 572.528C542.99 572.096 542.902 571.672 542.822 571.256C542.646 572.12 542.43 572.984 542.174 573.848L537.23 589.064C537.054 589.688 536.678 590 536.102 590H532.19L524.342 565.52H528.422C528.822 565.52 529.15 565.624 529.406 565.832C529.678 566.024 529.854 566.256 529.934 566.528L534.014 580.784C534.174 581.44 534.31 582.08 534.422 582.704C534.55 583.312 534.662 583.92 534.758 584.528C534.918 583.92 535.086 583.312 535.262 582.704C535.438 582.08 535.622 581.44 535.814 580.784L540.398 566.456C540.478 566.168 540.638 565.936 540.878 565.76C541.134 565.568 541.438 565.472 541.79 565.472H544.046C544.414 565.472 544.726 565.568 544.982 565.76C545.238 565.936 545.406 566.168 545.486 566.456L549.95 580.784C550.142 581.44 550.318 582.08 550.478 582.704C550.654 583.328 550.814 583.952 550.958 584.576C551.07 583.968 551.19 583.352 551.318 582.728C551.446 582.104 551.598 581.456 551.774 580.784L555.926 566.528C556.022 566.24 556.198 566 556.454 565.808C556.71 565.616 557.022 565.52 557.39 565.52H561.278ZM580.723 575C580.723 574.136 580.595 573.336 580.339 572.6C580.099 571.848 579.739 571.2 579.259 570.656C578.779 570.096 578.179 569.664 577.459 569.36C576.755 569.04 575.939 568.88 575.011 568.88C573.139 568.88 571.667 569.416 570.595 570.488C569.523 571.56 568.843 573.064 568.555 575H580.723ZM568.411 578.168C568.475 579.56 568.691 580.768 569.059 581.792C569.427 582.8 569.915 583.64 570.523 584.312C571.147 584.984 571.883 585.488 572.731 585.824C573.595 586.144 574.555 586.304 575.611 586.304C576.619 586.304 577.491 586.192 578.227 585.968C578.963 585.728 579.603 585.472 580.147 585.2C580.691 584.912 581.155 584.656 581.539 584.432C581.923 584.192 582.275 584.072 582.595 584.072C583.011 584.072 583.331 584.232 583.555 584.552L585.019 586.448C584.411 587.168 583.723 587.776 582.955 588.272C582.187 588.768 581.371 589.176 580.507 589.496C579.643 589.8 578.755 590.016 577.843 590.144C576.931 590.288 576.043 590.36 575.179 590.36C573.483 590.36 571.907 590.08 570.451 589.52C569.011 588.944 567.755 588.104 566.683 587C565.627 585.896 564.795 584.528 564.187 582.896C563.595 581.264 563.299 579.384 563.299 577.256C563.299 575.56 563.563 573.976 564.091 572.504C564.635 571.032 565.403 569.752 566.395 568.664C567.403 567.576 568.619 566.72 570.043 566.096C571.483 565.456 573.107 565.136 574.915 565.136C576.419 565.136 577.811 565.384 579.091 565.88C580.371 566.36 581.475 567.072 582.403 568.016C583.331 568.96 584.051 570.12 584.563 571.496C585.091 572.856 585.355 574.408 585.355 576.152C585.355 576.952 585.267 577.488 585.091 577.76C584.915 578.032 584.595 578.168 584.131 578.168H568.411ZM595.039 570.056C595.807 568.504 596.735 567.288 597.823 566.408C598.911 565.512 600.215 565.064 601.735 565.064C602.263 565.064 602.759 565.128 603.223 565.256C603.687 565.368 604.103 565.544 604.471 565.784L604.111 569.672C604.047 569.944 603.943 570.136 603.799 570.248C603.671 570.344 603.495 570.392 603.271 570.392C603.031 570.392 602.687 570.352 602.239 570.272C601.791 570.176 601.319 570.128 600.823 570.128C600.103 570.128 599.463 570.232 598.903 570.44C598.359 570.648 597.863 570.952 597.415 571.352C596.983 571.752 596.599 572.24 596.263 572.816C595.927 573.392 595.615 574.048 595.327 574.784V590H590.167V565.52H593.167C593.711 565.52 594.087 565.624 594.295 565.832C594.503 566.024 594.647 566.368 594.727 566.864L595.039 570.056ZM629.392 565.136C631.2 565.136 632.832 565.432 634.288 566.024C635.76 566.616 637.008 567.456 638.032 568.544C639.072 569.632 639.872 570.952 640.432 572.504C640.992 574.056 641.272 575.8 641.272 577.736C641.272 579.672 640.992 581.416 640.432 582.968C639.872 584.52 639.072 585.848 638.032 586.952C637.008 588.04 635.76 588.88 634.288 589.472C632.832 590.064 631.2 590.36 629.392 590.36C627.568 590.36 625.92 590.064 624.448 589.472C622.992 588.88 621.744 588.04 620.704 586.952C619.664 585.848 618.864 584.52 618.304 582.968C617.744 581.416 617.464 579.672 617.464 577.736C617.464 575.8 617.744 574.056 618.304 572.504C618.864 570.952 619.664 569.632 620.704 568.544C621.744 567.456 622.992 566.616 624.448 566.024C625.92 565.432 627.568 565.136 629.392 565.136ZM629.392 586.328C631.6 586.328 633.24 585.592 634.312 584.12C635.4 582.632 635.944 580.512 635.944 577.76C635.944 575.008 635.4 572.888 634.312 571.4C633.24 569.896 631.6 569.144 629.392 569.144C627.152 569.144 625.488 569.896 624.4 571.4C623.312 572.888 622.768 575.008 622.768 577.76C622.768 580.512 623.312 582.632 624.4 584.12C625.488 585.592 627.152 586.328 629.392 586.328ZM647.323 590V569.624L644.923 569.288C644.523 569.208 644.195 569.064 643.939 568.856C643.699 568.648 643.579 568.352 643.579 567.968V565.856H647.323V563.792C647.323 562.4 647.523 561.152 647.923 560.048C648.339 558.944 648.923 558.008 649.675 557.24C650.443 556.472 651.371 555.888 652.459 555.488C653.547 555.072 654.771 554.864 656.131 554.864C656.691 554.864 657.219 554.904 657.715 554.984C658.227 555.064 658.723 555.184 659.203 555.344L659.107 557.936C659.075 558.368 658.859 558.624 658.459 558.704C658.075 558.784 657.587 558.824 656.995 558.824C656.275 558.824 655.627 558.912 655.051 559.088C654.475 559.248 653.979 559.528 653.563 559.928C653.163 560.328 652.851 560.856 652.627 561.512C652.419 562.168 652.315 562.984 652.315 563.96V565.856H659.011V569.576H652.483V590H647.323ZM684.738 572C686.018 572 687.138 571.848 688.098 571.544C689.058 571.224 689.858 570.784 690.498 570.224C691.138 569.664 691.618 569 691.938 568.232C692.258 567.448 692.418 566.584 692.418 565.64C692.418 563.752 691.794 562.312 690.546 561.32C689.298 560.328 687.41 559.832 684.882 559.832H680.322V572H684.738ZM701.01 590H695.994C695.002 590 694.282 589.616 693.834 588.848L685.77 577.208C685.498 576.808 685.202 576.52 684.882 576.344C684.562 576.168 684.082 576.08 683.442 576.08H680.322V590H674.706V555.44H684.882C687.154 555.44 689.106 555.672 690.738 556.136C692.386 556.6 693.738 557.264 694.794 558.128C695.85 558.976 696.626 560 697.122 561.2C697.634 562.4 697.89 563.736 697.89 565.208C697.89 566.408 697.706 567.528 697.338 568.568C696.986 569.608 696.466 570.552 695.778 571.4C695.106 572.248 694.274 572.984 693.282 573.608C692.29 574.232 691.162 574.72 689.898 575.072C690.586 575.488 691.178 576.072 691.674 576.824L701.01 590ZM718.677 575C718.677 574.136 718.549 573.336 718.293 572.6C718.053 571.848 717.693 571.2 717.213 570.656C716.733 570.096 716.133 569.664 715.413 569.36C714.709 569.04 713.893 568.88 712.965 568.88C711.093 568.88 709.621 569.416 708.549 570.488C707.477 571.56 706.797 573.064 706.509 575H718.677ZM706.365 578.168C706.429 579.56 706.645 580.768 707.013 581.792C707.381 582.8 707.869 583.64 708.477 584.312C709.101 584.984 709.837 585.488 710.685 585.824C711.549 586.144 712.509 586.304 713.565 586.304C714.573 586.304 715.445 586.192 716.181 585.968C716.917 585.728 717.557 585.472 718.101 585.2C718.645 584.912 719.109 584.656 719.493 584.432C719.877 584.192 720.229 584.072 720.549 584.072C720.965 584.072 721.285 584.232 721.509 584.552L722.973 586.448C722.365 587.168 721.677 587.776 720.909 588.272C720.141 588.768 719.325 589.176 718.461 589.496C717.597 589.8 716.709 590.016 715.797 590.144C714.885 590.288 713.997 590.36 713.133 590.36C711.437 590.36 709.861 590.08 708.405 589.52C706.965 588.944 705.709 588.104 704.637 587C703.581 585.896 702.749 584.528 702.141 582.896C701.549 581.264 701.253 579.384 701.253 577.256C701.253 575.56 701.517 573.976 702.045 572.504C702.589 571.032 703.357 569.752 704.349 568.664C705.357 567.576 706.573 566.72 707.997 566.096C709.437 565.456 711.061 565.136 712.869 565.136C714.373 565.136 715.765 565.384 717.045 565.88C718.325 566.36 719.429 567.072 720.357 568.016C721.285 568.96 722.005 570.12 722.517 571.496C723.045 572.856 723.309 574.408 723.309 576.152C723.309 576.952 723.221 577.488 723.045 577.76C722.869 578.032 722.549 578.168 722.085 578.168H706.365ZM741.201 579.296C739.361 579.36 737.809 579.512 736.545 579.752C735.281 579.976 734.257 580.272 733.473 580.64C732.689 580.992 732.121 581.416 731.769 581.912C731.433 582.408 731.265 582.952 731.265 583.544C731.265 584.12 731.353 584.616 731.529 585.032C731.721 585.432 731.977 585.768 732.297 586.04C732.633 586.296 733.017 586.488 733.449 586.616C733.897 586.728 734.385 586.784 734.913 586.784C736.257 586.784 737.409 586.536 738.369 586.04C739.345 585.528 740.289 584.792 741.201 583.832V579.296ZM727.521 568.928C730.289 566.352 733.585 565.064 737.409 565.064C738.817 565.064 740.065 565.296 741.153 565.76C742.257 566.208 743.177 566.848 743.913 567.68C744.665 568.512 745.233 569.504 745.617 570.656C746.017 571.792 746.217 573.056 746.217 574.448V590H743.913C743.417 590 743.041 589.928 742.785 589.784C742.529 589.624 742.313 589.312 742.137 588.848L741.633 586.856C741.009 587.416 740.393 587.92 739.785 588.368C739.177 588.8 738.545 589.168 737.889 589.472C737.249 589.776 736.553 590 735.801 590.144C735.065 590.304 734.249 590.384 733.353 590.384C732.361 590.384 731.433 590.248 730.569 589.976C729.721 589.704 728.985 589.296 728.361 588.752C727.737 588.192 727.241 587.504 726.873 586.688C726.521 585.872 726.345 584.912 726.345 583.808C726.345 582.864 726.593 581.944 727.089 581.048C727.601 580.152 728.433 579.352 729.585 578.648C730.753 577.928 732.281 577.336 734.169 576.872C736.073 576.408 738.417 576.144 741.201 576.08V574.448C741.201 572.688 740.825 571.376 740.073 570.512C739.321 569.648 738.217 569.216 736.761 569.216C735.769 569.216 734.937 569.344 734.265 569.6C733.593 569.84 733.009 570.104 732.513 570.392C732.017 570.68 731.577 570.952 731.193 571.208C730.809 571.448 730.401 571.568 729.969 571.568C729.617 571.568 729.313 571.48 729.057 571.304C728.817 571.112 728.617 570.88 728.457 570.608L727.521 568.928ZM769.565 570.32C769.405 570.528 769.253 570.688 769.109 570.8C768.965 570.912 768.757 570.968 768.485 570.968C768.213 570.968 767.925 570.872 767.621 570.68C767.333 570.488 766.981 570.28 766.565 570.056C766.165 569.816 765.677 569.6 765.101 569.408C764.525 569.216 763.805 569.12 762.941 569.12C761.821 569.12 760.837 569.32 759.989 569.72C759.157 570.12 758.453 570.696 757.877 571.448C757.317 572.184 756.893 573.088 756.605 574.16C756.333 575.216 756.197 576.408 756.197 577.736C756.197 579.112 756.349 580.336 756.653 581.408C756.957 582.48 757.389 583.384 757.949 584.12C758.525 584.856 759.213 585.416 760.013 585.8C760.829 586.184 761.741 586.376 762.749 586.376C763.741 586.376 764.549 586.256 765.173 586.016C765.797 585.776 766.317 585.512 766.733 585.224C767.149 584.936 767.501 584.672 767.789 584.432C768.093 584.192 768.413 584.072 768.749 584.072C769.165 584.072 769.485 584.232 769.709 584.552L771.173 586.448C770.581 587.168 769.925 587.776 769.205 588.272C768.485 588.768 767.725 589.176 766.925 589.496C766.125 589.8 765.293 590.016 764.429 590.144C763.565 590.288 762.693 590.36 761.813 590.36C760.293 590.36 758.869 590.08 757.541 589.52C756.229 588.944 755.077 588.12 754.085 587.048C753.109 585.96 752.333 584.64 751.757 583.088C751.197 581.52 750.917 579.736 750.917 577.736C750.917 575.928 751.173 574.256 751.685 572.72C752.197 571.168 752.941 569.832 753.917 568.712C754.909 567.592 756.133 566.72 757.589 566.096C759.045 565.456 760.725 565.136 762.629 565.136C764.405 565.136 765.965 565.424 767.309 566C768.669 566.576 769.877 567.392 770.933 568.448L769.565 570.32ZM783.172 590.384C781.14 590.384 779.572 589.816 778.468 588.68C777.38 587.528 776.836 585.912 776.836 583.832V569.576H774.148C773.86 569.576 773.612 569.488 773.404 569.312C773.196 569.12 773.092 568.84 773.092 568.472V566.384L777.052 565.808L778.18 558.728C778.26 558.456 778.396 558.24 778.588 558.08C778.78 557.904 779.036 557.816 779.356 557.816H781.996V565.856H788.788V569.576H781.996V583.472C781.996 584.352 782.212 585.024 782.644 585.488C783.076 585.952 783.652 586.184 784.372 586.184C784.772 586.184 785.116 586.136 785.404 586.04C785.692 585.928 785.94 585.816 786.148 585.704C786.356 585.576 786.532 585.464 786.676 585.368C786.836 585.256 786.988 585.2 787.132 585.2C787.42 585.2 787.652 585.36 787.828 585.68L789.364 588.2C788.564 588.904 787.62 589.448 786.532 589.832C785.444 590.2 784.324 590.384 783.172 590.384ZM817.888 579.296C816.048 579.36 814.496 579.512 813.232 579.752C811.968 579.976 810.944 580.272 810.16 580.64C809.376 580.992 808.808 581.416 808.456 581.912C808.12 582.408 807.952 582.952 807.952 583.544C807.952 584.12 808.04 584.616 808.216 585.032C808.408 585.432 808.664 585.768 808.984 586.04C809.32 586.296 809.704 586.488 810.136 586.616C810.584 586.728 811.072 586.784 811.6 586.784C812.944 586.784 814.096 586.536 815.056 586.04C816.032 585.528 816.976 584.792 817.888 583.832V579.296ZM804.208 568.928C806.976 566.352 810.272 565.064 814.096 565.064C815.504 565.064 816.752 565.296 817.84 565.76C818.944 566.208 819.864 566.848 820.6 567.68C821.352 568.512 821.92 569.504 822.304 570.656C822.704 571.792 822.904 573.056 822.904 574.448V590H820.6C820.104 590 819.728 589.928 819.472 589.784C819.216 589.624 819 589.312 818.824 588.848L818.32 586.856C817.696 587.416 817.08 587.92 816.472 588.368C815.864 588.8 815.232 589.168 814.576 589.472C813.936 589.776 813.24 590 812.488 590.144C811.752 590.304 810.936 590.384 810.04 590.384C809.048 590.384 808.12 590.248 807.256 589.976C806.408 589.704 805.672 589.296 805.048 588.752C804.424 588.192 803.928 587.504 803.56 586.688C803.208 585.872 803.032 584.912 803.032 583.808C803.032 582.864 803.28 581.944 803.776 581.048C804.288 580.152 805.12 579.352 806.272 578.648C807.44 577.928 808.968 577.336 810.856 576.872C812.76 576.408 815.104 576.144 817.888 576.08V574.448C817.888 572.688 817.512 571.376 816.76 570.512C816.008 569.648 814.904 569.216 813.448 569.216C812.456 569.216 811.624 569.344 810.952 569.6C810.28 569.84 809.696 570.104 809.2 570.392C808.704 570.68 808.264 570.952 807.88 571.208C807.496 571.448 807.088 571.568 806.656 571.568C806.304 571.568 806 571.48 805.744 571.304C805.504 571.112 805.304 570.88 805.144 570.608L804.208 568.928ZM833.773 568.76C834.301 568.216 834.845 567.728 835.405 567.296C835.981 566.848 836.589 566.464 837.229 566.144C837.869 565.824 838.549 565.576 839.269 565.4C839.989 565.224 840.773 565.136 841.621 565.136C842.965 565.136 844.141 565.36 845.149 565.808C846.173 566.256 847.029 566.888 847.717 567.704C848.421 568.52 848.949 569.504 849.301 570.656C849.653 571.792 849.829 573.048 849.829 574.424V590H844.693V574.424C844.693 572.776 844.309 571.496 843.541 570.584C842.789 569.672 841.637 569.216 840.085 569.216C838.933 569.216 837.861 569.48 836.869 570.008C835.893 570.536 834.973 571.256 834.109 572.168V590H828.949V565.52H832.069C832.773 565.52 833.221 565.848 833.413 566.504L833.773 568.76ZM871.479 571.544C870.759 570.616 869.967 569.968 869.103 569.6C868.239 569.232 867.303 569.048 866.295 569.048C864.279 569.048 862.703 569.792 861.567 571.28C860.431 572.752 859.863 574.936 859.863 577.832C859.863 579.336 859.991 580.624 860.247 581.696C860.503 582.752 860.871 583.616 861.351 584.288C861.831 584.96 862.415 585.448 863.103 585.752C863.791 586.056 864.567 586.208 865.431 586.208C866.743 586.208 867.871 585.928 868.815 585.368C869.775 584.792 870.663 583.984 871.479 582.944V571.544ZM876.639 554.48V590H873.519C872.831 590 872.391 589.672 872.199 589.016L871.743 586.352C870.719 587.552 869.551 588.52 868.239 589.256C866.943 589.992 865.431 590.36 863.703 590.36C862.327 590.36 861.079 590.088 859.959 589.544C858.839 588.984 857.879 588.176 857.079 587.12C856.279 586.064 855.655 584.76 855.207 583.208C854.775 581.64 854.559 579.848 854.559 577.832C854.559 576.008 854.799 574.32 855.279 572.768C855.775 571.216 856.479 569.872 857.391 568.736C858.303 567.584 859.407 566.688 860.703 566.048C862.015 565.392 863.479 565.064 865.095 565.064C866.535 565.064 867.759 565.296 868.767 565.76C869.775 566.208 870.679 566.84 871.479 567.656V554.48H876.639ZM924.158 572.984V586.664C920.718 589.144 916.718 590.384 912.158 590.384C909.358 590.384 906.822 589.952 904.55 589.088C902.294 588.208 900.366 586.992 898.766 585.44C897.166 583.872 895.934 582.008 895.07 579.848C894.206 577.688 893.774 575.312 893.774 572.72C893.774 570.112 894.19 567.728 895.022 565.568C895.854 563.392 897.046 561.528 898.598 559.976C900.15 558.408 902.022 557.2 904.214 556.352C906.406 555.488 908.87 555.056 911.606 555.056C912.998 555.056 914.286 555.168 915.47 555.392C916.67 555.6 917.782 555.896 918.806 556.28C919.83 556.664 920.774 557.128 921.638 557.672C922.502 558.216 923.294 558.824 924.014 559.496L922.406 562.064C922.15 562.464 921.822 562.712 921.422 562.808C921.022 562.904 920.59 562.808 920.126 562.52C919.662 562.248 919.166 561.96 918.638 561.656C918.126 561.352 917.534 561.072 916.862 560.816C916.19 560.544 915.414 560.328 914.534 560.168C913.654 559.992 912.614 559.904 911.414 559.904C909.59 559.904 907.942 560.208 906.47 560.816C905.014 561.408 903.766 562.264 902.726 563.384C901.686 564.488 900.886 565.832 900.326 567.416C899.766 569 899.486 570.768 899.486 572.72C899.486 574.784 899.782 576.632 900.374 578.264C900.966 579.88 901.806 581.256 902.894 582.392C903.982 583.512 905.294 584.368 906.83 584.96C908.382 585.552 910.11 585.848 912.014 585.848C913.438 585.848 914.702 585.696 915.806 585.392C916.926 585.088 918.022 584.664 919.094 584.12V577.256H914.27C913.902 577.256 913.614 577.16 913.406 576.968C913.198 576.76 913.094 576.496 913.094 576.176V572.984H924.158ZM934.321 570.056C935.089 568.504 936.017 567.288 937.105 566.408C938.193 565.512 939.497 565.064 941.017 565.064C941.545 565.064 942.041 565.128 942.505 565.256C942.969 565.368 943.385 565.544 943.753 565.784L943.393 569.672C943.329 569.944 943.225 570.136 943.081 570.248C942.953 570.344 942.777 570.392 942.553 570.392C942.313 570.392 941.969 570.352 941.521 570.272C941.073 570.176 940.601 570.128 940.105 570.128C939.385 570.128 938.745 570.232 938.185 570.44C937.641 570.648 937.145 570.952 936.697 571.352C936.265 571.752 935.881 572.24 935.545 572.816C935.209 573.392 934.897 574.048 934.609 574.784V590H929.449V565.52H932.449C932.993 565.52 933.369 565.624 933.577 565.832C933.785 566.024 933.929 566.368 934.009 566.864L934.321 570.056ZM959.872 579.296C958.032 579.36 956.48 579.512 955.216 579.752C953.952 579.976 952.928 580.272 952.144 580.64C951.36 580.992 950.792 581.416 950.44 581.912C950.104 582.408 949.936 582.952 949.936 583.544C949.936 584.12 950.024 584.616 950.2 585.032C950.392 585.432 950.648 585.768 950.968 586.04C951.304 586.296 951.688 586.488 952.12 586.616C952.568 586.728 953.056 586.784 953.584 586.784C954.928 586.784 956.08 586.536 957.04 586.04C958.016 585.528 958.96 584.792 959.872 583.832V579.296ZM946.192 568.928C948.96 566.352 952.256 565.064 956.08 565.064C957.488 565.064 958.736 565.296 959.824 565.76C960.928 566.208 961.848 566.848 962.584 567.68C963.336 568.512 963.904 569.504 964.288 570.656C964.688 571.792 964.888 573.056 964.888 574.448V590H962.584C962.088 590 961.712 589.928 961.456 589.784C961.2 589.624 960.984 589.312 960.808 588.848L960.304 586.856C959.68 587.416 959.064 587.92 958.456 588.368C957.848 588.8 957.216 589.168 956.56 589.472C955.92 589.776 955.224 590 954.472 590.144C953.736 590.304 952.92 590.384 952.024 590.384C951.032 590.384 950.104 590.248 949.24 589.976C948.392 589.704 947.656 589.296 947.032 588.752C946.408 588.192 945.912 587.504 945.544 586.688C945.192 585.872 945.016 584.912 945.016 583.808C945.016 582.864 945.264 581.944 945.76 581.048C946.272 580.152 947.104 579.352 948.256 578.648C949.424 577.928 950.952 577.336 952.84 576.872C954.744 576.408 957.088 576.144 959.872 576.08V574.448C959.872 572.688 959.496 571.376 958.744 570.512C957.992 569.648 956.888 569.216 955.432 569.216C954.44 569.216 953.608 569.344 952.936 569.6C952.264 569.84 951.68 570.104 951.184 570.392C950.688 570.68 950.248 570.952 949.864 571.208C949.48 571.448 949.072 571.568 948.64 571.568C948.288 571.568 947.984 571.48 947.728 571.304C947.488 571.112 947.288 570.88 947.128 570.608L946.192 568.928ZM976.093 583.856C976.813 584.784 977.597 585.44 978.445 585.824C979.309 586.192 980.261 586.376 981.301 586.376C983.317 586.376 984.885 585.64 986.005 584.168C987.141 582.696 987.709 580.504 987.709 577.592C987.709 576.088 987.581 574.808 987.325 573.752C987.069 572.68 986.701 571.808 986.221 571.136C985.741 570.464 985.157 569.976 984.469 569.672C983.781 569.368 983.005 569.216 982.141 569.216C980.829 569.216 979.693 569.504 978.733 570.08C977.789 570.64 976.909 571.448 976.093 572.504V583.856ZM975.829 569.072C976.853 567.872 978.013 566.904 979.309 566.168C980.621 565.432 982.141 565.064 983.869 565.064C985.245 565.064 986.493 565.344 987.613 565.904C988.733 566.448 989.693 567.248 990.493 568.304C991.293 569.36 991.909 570.672 992.341 572.24C992.789 573.792 993.013 575.576 993.013 577.592C993.013 579.4 992.765 581.088 992.269 582.656C991.789 584.208 991.093 585.56 990.181 586.712C989.269 587.848 988.165 588.744 986.869 589.4C985.573 590.04 984.109 590.36 982.477 590.36C981.037 590.36 979.813 590.128 978.805 589.664C977.813 589.2 976.909 588.56 976.093 587.744V598.136H970.933V565.52H974.053C974.757 565.52 975.205 565.848 975.397 566.504L975.829 569.072ZM1003.19 568.424C1004.19 567.432 1005.3 566.64 1006.5 566.048C1007.7 565.44 1009.1 565.136 1010.7 565.136C1012.04 565.136 1013.22 565.36 1014.23 565.808C1015.25 566.256 1016.11 566.888 1016.79 567.704C1017.5 568.52 1018.03 569.504 1018.38 570.656C1018.73 571.792 1018.91 573.048 1018.91 574.424V590H1013.77V574.424C1013.77 572.776 1013.39 571.496 1012.62 570.584C1011.87 569.672 1010.71 569.216 1009.16 569.216C1008.01 569.216 1006.94 569.48 1005.95 570.008C1004.97 570.536 1004.05 571.256 1003.19 572.168V590H998.027V554.48H1003.19V568.424ZM1029.03 572.72C1029.03 574.72 1029.3 576.512 1029.84 578.096C1030.39 579.68 1031.16 581.024 1032.17 582.128C1033.18 583.216 1034.39 584.056 1035.82 584.648C1037.24 585.224 1038.83 585.512 1040.59 585.512C1042.37 585.512 1043.97 585.224 1045.39 584.648C1046.82 584.056 1048.03 583.216 1049.02 582.128C1050.03 581.024 1050.79 579.68 1051.32 578.096C1051.87 576.512 1052.14 574.72 1052.14 572.72C1052.14 570.736 1051.87 568.952 1051.32 567.368C1050.79 565.784 1050.03 564.44 1049.02 563.336C1048.03 562.232 1046.82 561.384 1045.39 560.792C1043.97 560.2 1042.37 559.904 1040.59 559.904C1038.83 559.904 1037.24 560.2 1035.82 560.792C1034.39 561.384 1033.18 562.232 1032.17 563.336C1031.16 564.44 1030.39 565.784 1029.84 567.368C1029.3 568.952 1029.03 570.736 1029.03 572.72ZM1059.58 596.912H1054.97C1054.28 596.912 1053.67 596.816 1053.15 596.624C1052.62 596.448 1052.13 596.12 1051.68 595.64L1046.16 589.568C1044.43 590.096 1042.58 590.36 1040.59 590.36C1038.02 590.36 1035.67 589.92 1033.54 589.04C1031.43 588.16 1029.61 586.944 1028.09 585.392C1026.57 583.824 1025.39 581.96 1024.56 579.8C1023.73 577.64 1023.31 575.28 1023.31 572.72C1023.31 570.16 1023.73 567.8 1024.56 565.64C1025.39 563.48 1026.57 561.616 1028.09 560.048C1029.61 558.48 1031.43 557.256 1033.54 556.376C1035.67 555.496 1038.02 555.056 1040.59 555.056C1043.19 555.056 1045.54 555.496 1047.65 556.376C1049.78 557.256 1051.59 558.48 1053.1 560.048C1054.62 561.616 1055.79 563.48 1056.63 565.64C1057.46 567.8 1057.87 570.16 1057.87 572.72C1057.87 574.304 1057.71 575.816 1057.39 577.256C1057.07 578.68 1056.61 580.016 1056 581.264C1055.39 582.496 1054.65 583.632 1053.77 584.672C1052.89 585.696 1051.89 586.592 1050.77 587.36L1059.58 596.912ZM1083.97 585.296V590H1064V555.44H1069.62V585.296H1083.97Z" fill="#E6E6E6"/>
<defs>
<filter id="filter0_i" x="573.363" y="281.109" width="217.785" height="57.079" filterUnits="userSpaceOnUse" color-interpolation-filters="sRGB">
<feFlood flood-opacity="0" result="BackgroundImageFix"/>
<feBlend mode="normal" in="SourceGraphic" in2="BackgroundImageFix" result="shape"/>
<feColorMatrix in="SourceAlpha" type="matrix" values="0 0 0 0 0 0 0 0 0 0 0 0 0 0 0 0 0 0 127 0" result="hardAlpha"/>
<feOffset dy="4"/>
<feGaussianBlur stdDeviation="7.5"/>
<feComposite in2="hardAlpha" operator="arithmetic" k2="-1" k3="1"/>
<feColorMatrix type="matrix" values="0 0 0 0 0 0 0 0 0 0 0 0 0 0 0 0 0 0 0.5 0"/>
<feBlend mode="normal" in2="shape" result="effect1_innerShadow"/>
</filter>
</defs>
</svg>
