<svg width="512" height="512" viewBox="0 0 512 512" fill="none" xmlns="http://www.w3.org/2000/svg">
<rect width="512" height="512" rx="56" fill="#DBB576"/>
<g filter="url(#filter0_d)">
<path d="M420.065 260.951C233.338 343.213 117.454 274.387 43.2724 232.584C38.6821 229.949 30.8802 233.2 37.6494 240.397C62.3629 268.136 143.354 334.994 249.072 334.994C354.862 334.994 417.797 281.56 425.67 272.239C433.49 262.996 427.966 257.898 420.063 260.951H420.065ZM472.506 234.142C467.492 228.098 442.015 226.971 425.982 228.795C409.924 230.565 385.821 239.65 387.916 245.105C388.992 247.148 391.187 246.231 402.218 245.313C413.279 244.292 444.267 240.671 450.724 248.485C457.211 256.352 440.841 293.831 437.851 299.875C434.962 305.92 438.955 307.479 444.381 303.453C449.732 299.429 459.42 289.007 465.922 274.259C472.378 259.43 476.316 238.745 472.504 234.142H472.506Z" fill="black"/>
</g>
<path d="M176 0H343V57.5L304.5 95L262.5 137H188C181.373 137 176 131.627 176 125V0Z" fill="#06A6E1"/>
<path d="M266 61C270 57.0001 275 57.4999 275 57.4999L343 57.5L262.5 137L262.5 69.5C262.5 69.5 262 64.9999 266 61Z" fill="#33C4FC"/>
<g clip-path="url(#clip0)">
<path fill-rule="evenodd" clip-rule="evenodd" d="M264.236 28.6787L285.261 40.7723C285.868 40.1325 286.564 39.5833 287.329 39.1419C291.689 36.6446 297.25 38.1273 299.783 42.4714C302.29 46.8156 300.802 52.3559 296.441 54.8791C295.682 55.3145 294.864 55.6389 294.013 55.8424V80.0384C294.855 80.2422 295.664 80.5644 296.415 80.9952C300.802 83.5184 302.29 89.0592 299.757 93.4033C297.25 97.7471 291.663 99.2298 287.302 96.7328C286.458 96.25 285.697 95.6345 285.049 94.9101L264.152 106.929C264.458 107.852 264.614 108.819 264.612 109.791C264.612 114.785 260.539 118.869 255.5 118.869C250.46 118.869 246.388 114.811 246.388 109.791C246.388 108.898 246.516 108.036 246.756 107.222L225.737 95.1322C225.137 95.7593 224.45 96.2983 223.698 96.7328C219.311 99.2298 213.749 97.7471 211.243 93.4033C208.736 89.0592 210.225 83.5184 214.585 80.9952C215.336 80.5643 216.145 80.242 216.987 80.038V55.8424C216.135 55.6389 215.318 55.3145 214.559 54.8791C210.198 52.3821 208.71 46.8156 211.217 42.4714C213.724 38.1273 219.311 36.6446 223.671 39.1419C224.432 39.581 225.125 40.1266 225.729 40.762L246.76 28.6653C246.512 27.827 246.387 26.9575 246.388 26.0836C246.388 21.0638 250.46 17.0055 255.5 17.0055C260.539 17.0055 264.612 21.0635 264.612 26.0836C264.612 26.986 264.481 27.8568 264.236 28.6787ZM262.046 32.4049L283.12 44.5268C282.785 45.6955 282.688 46.9194 282.837 48.1259C282.986 49.3323 283.377 50.4966 283.987 51.5496C285.269 53.7728 287.359 55.2467 289.679 55.8211V80.0472C289.56 80.0759 289.443 80.1074 289.326 80.1407L261.801 32.6475C261.884 32.5681 261.966 32.4874 262.046 32.4052V32.4049ZM249.205 32.6528L221.68 80.1453C221.561 80.111 221.442 80.0792 221.321 80.0497V55.8211C223.641 55.2467 225.731 53.7728 227.013 51.5496C227.624 50.4946 228.015 49.3279 228.164 48.119C228.312 46.91 228.214 45.6838 227.876 44.5133L248.945 32.395C249.03 32.4824 249.116 32.5685 249.205 32.6524V32.6528ZM258.046 34.8041L285.564 82.2861C284.934 82.8853 284.394 83.5719 283.96 84.3248C283.528 85.0731 283.204 85.8789 283 86.718H228.001C227.796 85.8789 227.472 85.0731 227.04 84.3248C226.605 83.5771 226.065 82.8946 225.438 82.2977L252.962 34.8063C253.787 35.043 254.641 35.1627 255.5 35.1618C256.384 35.1618 257.238 35.0371 258.046 34.8041ZM262.239 103.675L283.177 91.6316C283.114 91.435 283.058 91.2363 283.009 91.0359H227.989C227.96 91.1539 227.928 91.2707 227.895 91.3872L248.935 103.49C249.784 102.609 250.804 101.91 251.932 101.432C253.061 100.955 254.274 100.71 255.5 100.713C256.769 100.71 258.024 100.973 259.184 101.483C260.345 101.993 261.385 102.74 262.239 103.675V103.675Z" fill="#E535AB"/>
</g>
<path d="M266 61C270 57.0001 275 57.4999 275 57.4999L343 57.5L262.5 137L262.5 69.5C262.5 69.5 262 64.9999 266 61Z" fill="#33C4FC" fill-opacity="0.95"/>
<defs>
<filter id="filter0_d" x="20" y="217" width="469" height="136.994" filterUnits="userSpaceOnUse" color-interpolation-filters="sRGB">
<feFlood flood-opacity="0" result="BackgroundImageFix"/>
<feColorMatrix in="SourceAlpha" type="matrix" values="0 0 0 0 0 0 0 0 0 0 0 0 0 0 0 0 0 0 127 0" result="hardAlpha"/>
<feOffset dy="4"/>
<feGaussianBlur stdDeviation="7.5"/>
<feComposite in2="hardAlpha" operator="out"/>
<feColorMatrix type="matrix" values="0 0 0 0 0 0 0 0 0 0 0 0 0 0 0 0 0 0 0.5 0"/>
<feBlend mode="normal" in2="BackgroundImageFix" result="effect1_dropShadow"/>
<feBlend mode="normal" in="SourceGraphic" in2="effect1_dropShadow" result="shape"/>
</filter>
<clipPath id="clip0">
<rect width="91" height="102" fill="white" transform="translate(210 17)"/>
</clipPath>
</defs>
</svg>
